<svg width="528" height="542" viewBox="0 0 528 542" fill="none" xmlns="http://www.w3.org/2000/svg">
<path d="M270 129C270 93.1015 299.101 64 335 64C370.899 64 400 93.1015 400 129C400 164.899 370.899 194 335 194C299.101 194 270 164.899 270 129Z" fill="#59E2D0"/>
<path d="M270 206H400V392.759C400 439.836 363.52 478 318.52 478H270V206Z" fill="#47D7FF"/>
<path d="M128 348H258V478H209.48C164.48 478 128 441.52 128 396.52V348Z" fill="#FFBC47"/>
<path d="M128 149.241C128 102.164 164.48 64 209.48 64H258V268C258 305.555 228.898 336 193 336C157.102 336 128 305.555 128 268V149.241Z" fill="#FF665A"/>
</svg>
